<svg width="37" height="49" viewBox="0 0 37 49" fill="none" xmlns="http://www.w3.org/2000/svg">
<path d="M9.77995 6.125C11.0422 2.55527 14.4724 0 18.5 0C22.5276 0 25.9578 2.55527 27.2201 6.125H30.8333C34.2346 6.125 37 8.87168 37 12.25V42.875C37 46.2533 34.2346 49 30.8333 49H6.16667C2.76536 49 0 46.2533 0 42.875V12.25C0 8.87168 2.76536 6.125 6.16667 6.125H9.77995ZM21.5833 9.1875C21.5833 7.49355 20.2055 6.125 18.5 6.125C16.7945 6.125 15.4167 7.49355 15.4167 9.1875C15.4167 10.8814 16.7945 12.25 18.5 12.25C20.2055 12.25 21.5833 10.8814 21.5833 9.1875ZM15.4167 35.2188C15.4167 36.0609 16.1104 36.75 16.9583 36.75H29.2917C30.1396 36.75 30.8333 36.0609 30.8333 35.2188C30.8333 34.3766 30.1396 33.6875 29.2917 33.6875H16.9583C16.1104 33.6875 15.4167 34.3766 15.4167 35.2188ZM9.25 37.5156C10.5315 37.5156 11.5625 36.4916 11.5625 35.2188C11.5625 33.9459 10.5315 32.9219 9.25 32.9219C7.96849 32.9219 6.9375 33.9459 6.9375 35.2188C6.9375 36.4916 7.96849 37.5156 9.25 37.5156ZM15.4167 26.0312C15.4167 26.8734 16.1104 27.5625 16.9583 27.5625H29.2917C30.1396 27.5625 30.8333 26.8734 30.8333 26.0312C30.8333 25.1891 30.1396 24.5 29.2917 24.5H16.9583C16.1104 24.5 15.4167 25.1891 15.4167 26.0312ZM9.25 28.3281C10.5315 28.3281 11.5625 27.3041 11.5625 26.0312C11.5625 24.7584 10.5315 23.7344 9.25 23.7344C7.96849 23.7344 6.9375 24.7584 6.9375 26.0312C6.9375 27.3041 7.96849 28.3281 9.25 28.3281Z" fill="white"/>
</svg>
