<svg width="17" height="16" viewBox="0 0 17 16" fill="none" xmlns="http://www.w3.org/2000/svg">
<path d="M11.8823 2.59738L14.5444 5.41668C14.6566 5.53546 14.6566 5.72924 14.5444 5.84802L8.09861 12.6744L5.35972 12.9963C4.99375 13.04 4.68385 12.7119 4.72517 12.3243L5.02917 9.42372L11.475 2.59738C11.5872 2.47861 11.7701 2.47861 11.8823 2.59738ZM16.6635 1.88162L15.2233 0.35632C14.7747 -0.118773 14.0457 -0.118773 13.5941 0.35632L12.5493 1.46279C12.4372 1.58156 12.4372 1.77535 12.5493 1.89412L15.2115 4.71342C15.3236 4.83219 15.5066 4.83219 15.6187 4.71342L16.6635 3.60695C17.1122 3.12874 17.1122 2.35671 16.6635 1.88162ZM11.3333 10.8177V13.9996H1.88889V3.99766H8.67118C8.76562 3.99766 8.85417 3.95702 8.92205 3.88826L10.1026 2.63802C10.3269 2.40047 10.1675 1.99727 9.85174 1.99727H1.41667C0.634549 1.99727 0 2.66927 0 3.49756V14.4997C0 15.328 0.634549 16 1.41667 16H11.8056C12.5877 16 13.2222 15.328 13.2222 14.4997V9.56749C13.2222 9.23305 12.8415 9.0674 12.6172 9.30182L11.4366 10.5521C11.3717 10.624 11.3333 10.7177 11.3333 10.8177Z" fill="white"/>
</svg>
