<svg width="19" height="19" viewBox="0 0 19 19" fill="none" xmlns="http://www.w3.org/2000/svg">
<g clip-path="url(#clip0_1644_233)">
<rect width="19" height="19" fill="#142745"/>
<path d="M9.35621 2.49219C6.30158 2.49219 3.81641 4.83118 3.81641 7.70611C3.81641 11.3196 9.36165 17.4922 9.36165 17.4922C9.36165 17.4922 14.896 11.1419 14.896 7.70611C14.896 4.83118 12.4109 2.49219 9.35621 2.49219ZM11.0277 9.23276C10.5668 9.66644 9.96155 9.88333 9.35621 9.88333C8.75096 9.88333 8.14552 9.66644 7.68483 9.23276C6.76315 8.36539 6.76315 6.95401 7.68483 6.08655C8.13113 5.66632 8.7248 5.43488 9.35621 5.43488C9.98762 5.43488 10.5812 5.66641 11.0277 6.08655C11.9494 6.95401 11.9494 8.36539 11.0277 9.23276Z" fill="white"/>
</g>
<defs>
<clipPath id="clip0_1644_233">
<rect width="19" height="19" fill="white"/>
</clipPath>
</defs>
</svg>
