<svg width="19" height="19" viewBox="0 0 19 19" fill="none" xmlns="http://www.w3.org/2000/svg">
<g clip-path="url(#clip0_1644_236)">
<rect width="19" height="19" fill="#142745"/>
<path d="M11.2891 10.0513L14.9974 12.1826V7.83008L11.2891 10.0513Z" fill="white"/>
<path d="M4 7.83008V12.1826L7.70837 10.0513L4 7.83008Z" fill="white"/>
<path d="M14.3114 6.5625H4.68641C4.34334 6.5625 4.07109 6.795 4.01953 7.09438L9.49891 10.3763L14.9783 7.09438C14.9267 6.795 14.6545 6.5625 14.3114 6.5625Z" fill="white"/>
<path d="M10.6633 10.4284L9.6905 11.0109C9.63275 11.0452 9.56744 11.0621 9.50144 11.0621C9.43544 11.0621 9.37012 11.0452 9.31237 11.0109L8.33956 10.4277L4.02344 12.9096C4.07637 13.2065 4.34725 13.4371 4.68894 13.4371H14.3139C14.6556 13.4371 14.9265 13.2065 14.9794 12.9096L10.6633 10.4284Z" fill="white"/>
</g>
<defs>
<clipPath id="clip0_1644_236">
<rect width="19" height="19" fill="white"/>
</clipPath>
</defs>
</svg>
