<svg width="19" height="19" viewBox="0 0 19 19" fill="none" xmlns="http://www.w3.org/2000/svg">
<g clip-path="url(#clip0_1644_250)">
<rect width="19" height="19" fill="#142745"/>
<path d="M13.2778 11.2202C12.7268 11.2202 12.1858 11.1149 11.6731 10.9078C11.4219 10.8031 11.113 10.8992 10.9597 11.0916L9.94775 12.0253C8.77416 11.2597 8.05126 10.3764 7.43335 8.95278L8.1748 7.74816C8.36743 7.51304 8.43652 7.16958 8.35374 6.84731C8.18359 6.21739 8.09715 5.55644 8.09715 4.88269C8.09717 4.39597 7.7732 4 7.37499 4H5.72218C5.32398 4 5 4.39597 5 4.88266C5 10.4614 8.71339 15 13.2778 15C13.676 15 14 14.604 14 14.1173V12.1029C14 11.6162 13.676 11.2202 13.2778 11.2202Z" fill="white"/>
</g>
<defs>
<clipPath id="clip0_1644_250">
<rect width="19" height="19" fill="white"/>
</clipPath>
</defs>
</svg>
